<svg xmlns="http://www.w3.org/2000/svg" viewBox="0 0 560 440" width="560" height="440" font-family="-apple-system, 'SF Pro Text', 'Helvetica Neue', Helvetica, Arial, sans-serif">
<defs>
<marker id="ahB" viewBox="0 0 10 10" refX="9" refY="5" markerWidth="7" markerHeight="7" orient="auto"><path d="M0,0 L10,5 L0,10 z" fill="#5b7a99"/></marker>
<marker id="ahO" viewBox="0 0 10 10" refX="9" refY="5" markerWidth="7" markerHeight="7" orient="auto"><path d="M0,0 L10,5 L0,10 z" fill="#bf5b34"/></marker>
</defs>
<text x="36" y="32" font-size="7.6" fill="#9a9a94" font-weight="600" letter-spacing="1.1" text-anchor="start">CHARACTERISTIC AXES</text>
<text x="524" y="32" font-size="7.6" fill="#9a9a94" font-weight="600" letter-spacing="1.1" text-anchor="end">STRETCHED UNIT CIRCLE</text>
<line x1="36" y1="230" x2="524" y2="230" stroke="#3d3d3a" stroke-width="1"/>
<line x1="280" y1="415" x2="280" y2="40" stroke="#3d3d3a" stroke-width="1"/>
<circle cx="280" cy="230" r="40" fill="none" stroke="#9a9a94" stroke-width="1" stroke-dasharray="3 3"/>
<text x="280" y="262" font-size="8" fill="#9a9a94" text-anchor="middle">unit circle</text>
<ellipse cx="280" cy="230" rx="222" ry="58" transform="rotate(-38 280 230)" fill="none" stroke="#c9c7c0" stroke-width="1.3"/>
<line x1="91" y1="378" x2="469" y2="82" stroke="#9a9a94" stroke-width="1" stroke-dasharray="4 3"/>
<line x1="332" y1="297" x2="228" y2="163" stroke="#9a9a94" stroke-width="1" stroke-dasharray="4 3"/>
<line x1="280" y1="230" x2="455" y2="93" stroke="#5b7a99" stroke-width="1.3" marker-end="url(#ahB)"/>
<line x1="280" y1="230" x2="245" y2="185" stroke="#bf5b34" stroke-width="1.3" marker-end="url(#ahO)"/>
<text x="405" y="126" font-size="8.8" fill="#6b6b66" text-anchor="middle">λ = 5.56</text>
<text x="228" y="180" font-size="8.8" fill="#6b6b66" text-anchor="end">λ = 1.44</text>
<path d="M292.6,220.2 L282.8,207.6 L270.2,217.4" fill="none" stroke="#6b6b66" stroke-width="1"/>
<text x="296" y="204" font-size="8" fill="#9a9a94" text-anchor="start">90°</text>
<text x="280" y="432" font-size="8.8" fill="#6b6b66" text-anchor="middle">5.56 × 1.44 = 8.0 = determinant</text>
</svg>
