<svg xmlns="http://www.w3.org/2000/svg" viewBox="0 0 720 340" width="720" height="340" font-family="-apple-system, 'SF Pro Text', 'Helvetica Neue', Helvetica, Arial, sans-serif"><path d="M70.0,240.0 L70.0,240.0 L141.2,232.0 L212.5,214.0 L283.8,186.0 L355.0,164.0 L426.2,141.0 L497.5,123.0 L568.8,101.0 L640.0,82.0 L640.0,240.0 Z" fill="#bf5b34" fill-opacity="0.12"/><line x1="70" y1="290" x2="640" y2="290" stroke="#3d3d3a" stroke-width="1"/><line x1="70" y1="40" x2="70" y2="290" stroke="#3d3d3a" stroke-width="1"/><line x1="66" y1="290.0" x2="70" y2="290.0" stroke="#3d3d3a" stroke-width="1"/><text x="62" y="292.8" font-size="8" fill="#6b6b66" text-anchor="end">145</text><line x1="66" y1="240.0" x2="70" y2="240.0" stroke="#3d3d3a" stroke-width="1"/><text x="62" y="242.8" font-size="8" fill="#6b6b66" text-anchor="end">150</text><line x1="66" y1="190.0" x2="70" y2="190.0" stroke="#3d3d3a" stroke-width="1"/><text x="62" y="192.8" font-size="8" fill="#6b6b66" text-anchor="end">155</text><line x1="66" y1="140.0" x2="70" y2="140.0" stroke="#3d3d3a" stroke-width="1"/><text x="62" y="142.8" font-size="8" fill="#6b6b66" text-anchor="end">160</text><line x1="66" y1="90.0" x2="70" y2="90.0" stroke="#3d3d3a" stroke-width="1"/><text x="62" y="92.8" font-size="8" fill="#6b6b66" text-anchor="end">165</text><line x1="66" y1="40.0" x2="70" y2="40.0" stroke="#3d3d3a" stroke-width="1"/><text x="62" y="42.8" font-size="8" fill="#6b6b66" text-anchor="end">170</text><line x1="70.0" y1="290" x2="70.0" y2="294" stroke="#3d3d3a" stroke-width="1"/><text x="70.0" y="306" font-size="8" fill="#6b6b66" text-anchor="middle">0</text><line x1="212.5" y1="290" x2="212.5" y2="294" stroke="#3d3d3a" stroke-width="1"/><text x="212.5" y="306" font-size="8" fill="#6b6b66" text-anchor="middle">10</text><line x1="355.0" y1="290" x2="355.0" y2="294" stroke="#3d3d3a" stroke-width="1"/><text x="355.0" y="306" font-size="8" fill="#6b6b66" text-anchor="middle">20</text><line x1="497.5" y1="290" x2="497.5" y2="294" stroke="#3d3d3a" stroke-width="1"/><text x="497.5" y="306" font-size="8" fill="#6b6b66" text-anchor="middle">30</text><line x1="640.0" y1="290" x2="640.0" y2="294" stroke="#3d3d3a" stroke-width="1"/><text x="640.0" y="306" font-size="8" fill="#6b6b66" text-anchor="middle">40</text><text x="355.0" y="324" font-size="7.6" fill="#9a9a94" font-weight="600" text-anchor="middle" letter-spacing="1.1">TIME · MINUTES</text><text x="18" y="165.0" font-size="7.6" fill="#9a9a94" font-weight="600" text-anchor="middle" letter-spacing="1.1" transform="rotate(-90 18 165.0)">HEART RATE · BPM</text><line x1="70" y1="240.0" x2="640" y2="240.0" stroke="#5b7a99" stroke-width="1.8"/><text x="648" y="243.0" font-size="8.8" fill="#6b6b66">expected</text><polyline points="70.0,240.0 141.2,232.0 212.5,214.0 283.8,186.0 355.0,164.0 426.2,141.0 497.5,123.0 568.8,101.0 640.0,82.0" fill="none" stroke="#bf5b34" stroke-width="1.8" stroke-dasharray="5 3"/><circle cx="70.0" cy="240.0" r="2.6" fill="#bf5b34"/><circle cx="141.2" cy="232.0" r="2.6" fill="#bf5b34"/><circle cx="212.5" cy="214.0" r="2.6" fill="#bf5b34"/><circle cx="283.8" cy="186.0" r="2.6" fill="#bf5b34"/><circle cx="355.0" cy="164.0" r="2.6" fill="#bf5b34"/><circle cx="426.2" cy="141.0" r="2.6" fill="#bf5b34"/><circle cx="497.5" cy="123.0" r="2.6" fill="#bf5b34"/><circle cx="568.8" cy="101.0" r="2.6" fill="#bf5b34"/><circle cx="640.0" cy="82.0" r="2.6" fill="#bf5b34"/><text x="648" y="85.0" font-size="8.8" fill="#6b6b66">observed</text><line x1="436" y1="104" x2="489.5" y2="171.5" stroke="#3d3d3a" stroke-width="0.8"/><circle cx="489.5" cy="171.5" r="1.6" fill="#3d3d3a"/><text x="430" y="100" font-size="8.8" fill="#6b6b66" text-anchor="end">residual = observed − expected</text><text x="547.375" y="177.00000000000006" font-size="7.6" fill="#9a9a94" font-weight="600" text-anchor="middle" letter-spacing="1.1">RESIDUAL</text></svg>